<mxfile host="app.diagrams.net" modified="2023-05-29T12:33:31.764Z" agent="Mozilla/5.0 (Windows NT 10.0; Win64; x64; rv:102.0) Gecko/20100101 Firefox/102.0" version="21.3.5" etag="cSwEqAPHzdfct4psKM0C" type="github">
  <diagram name="Page-1" id="w6NB8-itPwkIWRnW1Z4t">
    <mxGraphModel>
      <root>
        <mxCell id="0" />
        <mxCell id="1" parent="0" />
      </root>
    </mxGraphModel>
  </diagram>
</mxfile>
